<svg width="48" height="48" viewBox="0 0 48 48" fill="none" xmlns="http://www.w3.org/2000/svg">
<path d="M44 41V45H4V41H44Z" fill="#272727"/>
<path d="M6 35V27C6 25.8954 6.89543 25 8 25C9.10457 25 10 25.8954 10 27V35C10 36.1046 9.10457 37 8 37C6.89543 37 6 36.1046 6 35Z" fill="#272727"/>
<path d="M16.715 35V14C16.715 12.8954 17.6104 12 18.715 12C19.8195 12 20.715 12.8954 20.715 14V35C20.715 36.1046 19.8195 37 18.715 37C17.6104 37 16.715 36.1046 16.715 35Z" fill="#272727"/>
<path d="M27.4279 35L27.4279 5C27.4279 3.89543 28.3233 3 29.4279 3C30.5325 3 31.4279 3.89543 31.4279 5L31.4279 35C31.4279 36.1046 30.5325 37 29.4279 37C28.3233 37 27.4279 36.1046 27.4279 35Z" fill="#272727"/>
<path d="M39.9426 17.0004C41.0469 16.9884 41.9519 17.8743 41.9642 18.9786L42.142 34.9776C42.1543 36.0818 41.2698 36.9865 40.1658 36.9992C39.0615 37.0115 38.1549 36.1272 38.1422 35.0231L37.9645 19.0221C37.9525 17.9178 38.8383 17.0127 39.9426 17.0004Z" fill="#272727"/>
</svg>
