<svg width="48" height="48" viewBox="0 0 48 48" fill="none" xmlns="http://www.w3.org/2000/svg">
<path d="M36.0808 14.0092L36.1396 9.6001H11.8408L11.782 14.0679C9.56767 15.0477 8 17.2621 8 19.8487V38.3472C8 41.8352 10.8218 44.657 14.3099 44.657H33.6901C37.1782 44.657 40 41.8352 40 38.3472V19.8487C40 17.2229 38.3735 14.9498 36.0808 14.0092ZM36.0808 38.3276C36.0808 39.6405 35.0031 40.7183 33.6901 40.7183H14.3099C12.9969 40.7183 11.9192 39.6405 11.9192 38.3276V19.8487C11.9192 18.5358 12.9969 17.458 14.3099 17.458H15.7012V13.5193H32.1813H32.1617V17.4384H33.7097C35.0227 17.4384 36.1004 18.5162 36.1004 19.8291V38.3276H36.0808Z" fill="#272727"/>
<path d="M19.6495 35.6668V29.5802H18V27.4085H19.6495V26.0283C19.6476 25.2054 19.8211 24.3915 20.1584 23.6412C20.5051 22.8696 21.0655 22.2139 21.7732 21.752C22.6404 21.2186 23.6477 20.9585 24.6642 21.0055C25.55 20.9752 26.4298 21.1615 27.2275 21.5484C27.8663 21.8756 28.4432 22.3119 28.9322 22.8379L26.9439 25.0095C26.6866 24.7353 26.3948 24.4958 26.0758 24.297C25.7289 24.0992 25.3341 24.0014 24.9352 24.0144C24.6478 23.9874 24.3587 24.0421 24.1009 24.1721C23.8431 24.3022 23.6272 24.5025 23.4779 24.7499C23.1967 25.25 23.0527 25.8157 23.0604 26.3896V27.4084H27.081V29.5801H23.0604V32.6578H29V35.6668H19.6495Z" fill="#272727"/>
<path d="M30 9.6001H26C26 8.5001 25.1 7.6001 24 7.6001C22.9 7.6001 22 8.5001 22 9.6001H18C18 6.3001 20.7 3.6001 24 3.6001C27.3 3.6001 30 6.3001 30 9.6001Z" fill="#272727"/>
</svg>
