<svg width="48" height="48" viewBox="0 0 48 48" fill="none" xmlns="http://www.w3.org/2000/svg">
<path d="M40 27C40 19.8203 34.1797 14 27 14C19.8203 14 14 19.8203 14 27C14 34.1797 19.8203 40 27 40V44C17.6112 44 10 36.3888 10 27C10 17.6112 17.6112 10 27 10C36.3888 10 44 17.6112 44 27C44 36.3888 36.3888 44 27 44V40C34.1797 40 40 34.1797 40 27Z" fill="#272727"/>
<path d="M21 4C27.2333 4 32.6795 7.35687 35.6387 12.3594C33.3672 11.0162 30.7578 10.1838 27.9668 10.0273C25.9526 8.74584 23.5641 8 21 8C13.8203 8 8 13.8203 8 21C8 23.5641 8.74584 25.9526 10.0273 27.9668C10.1838 30.7578 11.0162 33.3672 12.3594 35.6387C7.35687 32.6795 4 27.2333 4 21C4 11.6112 11.6112 4 21 4Z" fill="#272727"/>
<path d="M26.5995 28.19H30.2547V26.1174H26.5995V25.1444C26.5927 24.5966 26.7237 24.0568 26.9792 23.5794C27.1149 23.3432 27.3112 23.152 27.5455 23.0279C27.7799 22.9038 28.0428 22.8517 28.3041 22.8778C28.6668 22.8649 29.0257 22.9584 29.3408 23.1477C29.6317 23.3365 29.8976 23.5648 30.1316 23.8269L31.9384 21.7543C31.4938 21.2519 30.9692 20.8351 30.3883 20.5225C29.6627 20.1539 28.8628 19.9763 28.0575 20.0051C27.1333 19.9606 26.2176 20.2089 25.4292 20.718C24.7859 21.1589 24.2762 21.7845 23.9606 22.5207C23.655 23.2375 23.4976 24.0144 23.4987 24.7999V26.1174H22V28.19H23.4986V34H32V31.1273H26.5995V28.19Z" fill="#272727"/>
</svg>
