<svg width="48" height="48" viewBox="0 0 48 48" fill="none" xmlns="http://www.w3.org/2000/svg">
<path d="M42 10.0001H6C5.48741 9.98304 4.98899 10.17 4.61405 10.5199C4.23911 10.8699 4.01828 11.3542 4 11.8668V36.1334C4.01828 36.646 4.23911 37.1303 4.61405 37.4803C4.98899 37.8302 5.48741 38.0172 6 38.0001H42C42.5126 38.0172 43.011 37.8302 43.386 37.4803C43.7609 37.1304 43.9817 36.646 44 36.1334V11.8668C43.9817 11.3542 43.7609 10.8699 43.386 10.5199C43.011 10.17 42.5126 9.98303 42 10.0001ZM40 13.7334V17.4668H8V13.7334H40ZM35.82 34.2668H8V21.2001H40V34.2668H35.82Z" fill="#272727"/>
</svg>
